<svg width="110" height="38" viewBox="0 0 110 38" fill="none" xmlns="http://www.w3.org/2000/svg">
<path d="M6 15C6 10.0294 10.0294 6 15 6H23C27.9706 6 32 10.0294 32 15V23C32 27.9706 27.9706 32 23 32H6V15Z" stroke="#0085FF" stroke-width="2"/>
<path d="M21.26 23.06L19.22 23.14C17.9667 23.14 17.12 23.1 16.68 23.02C16.2533 22.9267 15.8667 22.82 15.52 22.7C15.1867 22.58 14.92 22.44 14.72 22.28C14.2267 21.9067 13.98 21.4067 13.98 20.78C13.98 20.5933 14.0933 20.3133 14.32 19.94C14.5467 19.5667 14.9333 19.1267 15.48 18.62C16.04 18.1 16.7 17.6133 17.46 17.16C18.2333 16.6933 19.2467 16.2867 20.5 15.94C21.7533 15.5933 23.1133 15.3933 24.58 15.34C25.1 15.34 25.6467 15.4067 26.22 15.54C26.8067 15.66 27.2867 15.8067 27.66 15.98C28.0467 16.1533 28.3867 16.42 28.68 16.78C28.9733 17.1267 29.12 17.5333 29.12 18C29.12 18.3733 28.76 18.7733 28.04 19.2C27.24 19.68 26.18 19.92 24.86 19.92C23.5533 19.92 22.9 19.8267 22.9 19.64C22.9 19.4933 23.28 19.32 24.04 19.12C24.8133 18.92 25.5867 18.6867 26.36 18.42C27.1333 18.1533 27.52 17.8533 27.52 17.52C27.52 17.3467 27.2267 17.26 26.64 17.26C22.7733 17.26 19.4533 18.26 16.68 20.26C16.16 20.6467 15.9 20.98 15.9 21.26C15.9 21.7 17.2867 21.92 20.06 21.92C22.5533 21.9467 23.8 22.6133 23.8 23.92C23.8 24.8533 23.1667 25.74 21.9 26.58C20.6333 27.42 19.14 28.0733 17.42 28.54C15.7133 29.0067 14.1067 29.2467 12.6 29.26C11.8933 29.26 11.1467 29.0733 10.36 28.7C9.57333 28.3267 9.18 27.8733 9.18 27.34C9.18 27.1667 9.32667 27.0733 9.62 27.06C11.1933 26.8867 12.2 26.7 12.64 26.5C12.7467 26.4733 12.8333 26.46 12.9 26.46C12.9667 26.46 13 26.4733 13 26.5C13 26.5533 12.92 26.64 12.76 26.76C12.6133 26.84 12.4533 26.9133 12.28 26.98C11.9067 27.1133 11.72 27.2 11.72 27.24C11.72 27.28 11.8533 27.3 12.12 27.3C12.3867 27.3 13.06 27.1933 14.14 26.98C15.22 26.7667 16.3733 26.4933 17.6 26.16C18.84 25.8267 19.9333 25.4133 20.88 24.92C21.8267 24.4267 22.3 23.9533 22.3 23.5C22.3 23.2067 21.9533 23.06 21.26 23.06Z" fill="#0085FF"/>
<path d="M40.9659 31.2273C39.9811 31.2273 39.117 30.9929 38.3736 30.5241C37.6349 30.0554 37.0573 29.3996 36.6406 28.5568C36.2287 27.714 36.0227 26.7292 36.0227 25.6023C36.0227 24.4659 36.2287 23.474 36.6406 22.6264C37.0573 21.7789 37.6349 21.1207 38.3736 20.652C39.117 20.1832 39.9811 19.9489 40.9659 19.9489C41.9508 19.9489 42.8125 20.1832 43.5511 20.652C44.2945 21.1207 44.8722 21.7789 45.2841 22.6264C45.7008 23.474 45.9091 24.4659 45.9091 25.6023C45.9091 26.7292 45.7008 27.714 45.2841 28.5568C44.8722 29.3996 44.2945 30.0554 43.5511 30.5241C42.8125 30.9929 41.9508 31.2273 40.9659 31.2273ZM40.9659 29.7216C41.714 29.7216 42.3295 29.5298 42.8125 29.1463C43.2955 28.7628 43.6529 28.2585 43.8849 27.6335C44.117 27.0085 44.233 26.3314 44.233 25.6023C44.233 24.8731 44.117 24.1937 43.8849 23.5639C43.6529 22.9342 43.2955 22.4252 42.8125 22.0369C42.3295 21.6487 41.714 21.4545 40.9659 21.4545C40.2178 21.4545 39.6023 21.6487 39.1193 22.0369C38.6364 22.4252 38.2789 22.9342 38.0469 23.5639C37.8149 24.1937 37.6989 24.8731 37.6989 25.6023C37.6989 26.3314 37.8149 27.0085 38.0469 27.6335C38.2789 28.2585 38.6364 28.7628 39.1193 29.1463C39.6023 29.5298 40.2178 29.7216 40.9659 29.7216ZM52.8995 31.2273C51.8768 31.2273 50.9961 30.9858 50.2575 30.5028C49.5188 30.0199 48.9506 29.3546 48.5529 28.5071C48.1552 27.6596 47.9563 26.6913 47.9563 25.6023C47.9563 24.4943 48.1599 23.5166 48.5671 22.669C48.979 21.8168 49.552 21.1515 50.2859 20.6733C51.0245 20.1903 51.8862 19.9489 52.8711 19.9489C53.6381 19.9489 54.3294 20.0909 54.945 20.375C55.5605 20.6591 56.0647 21.0568 56.4577 21.5682C56.8507 22.0795 57.0946 22.6761 57.1893 23.358H55.5131C55.3853 22.8608 55.1012 22.4205 54.6609 22.0369C54.2253 21.6487 53.6381 21.4545 52.8995 21.4545C52.2461 21.4545 51.6732 21.625 51.1808 21.9659C50.6931 22.3021 50.3119 22.7779 50.0373 23.3935C49.7674 24.0043 49.6325 24.7216 49.6325 25.5455C49.6325 26.3883 49.765 27.1222 50.0302 27.7472C50.3001 28.3722 50.6789 28.8575 51.1665 29.2031C51.659 29.5488 52.2366 29.7216 52.8995 29.7216C53.3351 29.7216 53.7305 29.6458 54.0856 29.4943C54.4407 29.3428 54.7414 29.125 54.9876 28.8409C55.2338 28.5568 55.409 28.2159 55.5131 27.8182H57.1893C57.0946 28.4621 56.8602 29.0421 56.4862 29.5582C56.1168 30.0696 55.6268 30.4768 55.016 30.7798C54.4099 31.0781 53.7044 31.2273 52.8995 31.2273ZM59.6396 31V20.0909H61.3157V31H59.6396ZM60.4918 18.2727C60.1651 18.2727 59.8834 18.1615 59.6467 17.9389C59.4147 17.7164 59.2987 17.4489 59.2987 17.1364C59.2987 16.8239 59.4147 16.5563 59.6467 16.3338C59.8834 16.1113 60.1651 16 60.4918 16C60.8185 16 61.0979 16.1113 61.3299 16.3338C61.5666 16.5563 61.685 16.8239 61.685 17.1364C61.685 17.4489 61.5666 17.7164 61.3299 17.9389C61.0979 18.1615 60.8185 18.2727 60.4918 18.2727ZM67.5959 31.2557C66.9046 31.2557 66.2772 31.1255 65.7138 30.8651C65.1503 30.5999 64.7029 30.2188 64.3714 29.7216C64.04 29.2197 63.8743 28.6136 63.8743 27.9034C63.8743 27.2784 63.9974 26.7718 64.2436 26.3835C64.4898 25.9905 64.8189 25.6828 65.2308 25.4602C65.6428 25.2377 66.0973 25.072 66.5945 24.9631C67.0964 24.8494 67.6006 24.7595 68.1072 24.6932C68.7701 24.608 69.3075 24.544 69.7195 24.5014C70.1361 24.4541 70.4392 24.3759 70.6286 24.267C70.8227 24.1581 70.9197 23.9687 70.9197 23.6989V23.642C70.9197 22.9413 70.728 22.3968 70.3445 22.0085C69.9657 21.6203 69.3904 21.4261 68.6186 21.4261C67.8184 21.4261 67.1911 21.6013 66.7365 21.9517C66.282 22.3021 65.9624 22.6761 65.7777 23.0739L64.1868 22.5057C64.4709 21.8428 64.8497 21.3267 65.3232 20.9574C65.8014 20.5833 66.3222 20.3229 66.8857 20.1761C67.4538 20.0246 68.0125 19.9489 68.5618 19.9489C68.9122 19.9489 69.3146 19.9915 69.7692 20.0767C70.2285 20.1572 70.6712 20.3253 71.0973 20.581C71.5282 20.8366 71.8857 21.2225 72.1697 21.7386C72.4538 22.2547 72.5959 22.946 72.5959 23.8125V31H70.9197V29.5227H70.8345C70.7209 29.7595 70.5315 30.0128 70.2663 30.2827C70.0012 30.5526 69.6484 30.7822 69.2081 30.9716C68.7678 31.161 68.2304 31.2557 67.5959 31.2557ZM67.8516 29.75C68.5144 29.75 69.0732 29.6198 69.5277 29.3594C69.987 29.099 70.3326 28.7628 70.5646 28.3509C70.8014 27.9389 70.9197 27.5057 70.9197 27.0511V25.517C70.8487 25.6023 70.6925 25.6804 70.451 25.7514C70.2143 25.8177 69.9396 25.8769 69.6271 25.929C69.3194 25.9763 69.0187 26.0189 68.7251 26.0568C68.4363 26.09 68.2019 26.1184 68.022 26.142C67.5864 26.1989 67.1792 26.2912 66.8004 26.419C66.4264 26.5421 66.1233 26.7292 65.8913 26.9801C65.6641 27.2263 65.5504 27.5625 65.5504 27.9886C65.5504 28.571 65.7659 29.0114 66.1967 29.3097C66.6323 29.6032 67.1839 29.75 67.8516 29.75ZM77.3313 16.4545V31H75.6552V16.4545H77.3313ZM88.1286 22.5341L86.6229 22.9602C86.5282 22.7093 86.3885 22.4654 86.2038 22.2287C86.0239 21.9872 85.7777 21.7884 85.4652 21.6321C85.1527 21.4759 84.7526 21.3977 84.2649 21.3977C83.5973 21.3977 83.041 21.5516 82.5959 21.8594C82.1555 22.1624 81.9354 22.5483 81.9354 23.017C81.9354 23.4337 82.0869 23.7628 82.3899 24.0043C82.6929 24.2457 83.1664 24.447 83.8104 24.608L85.4297 25.0057C86.4051 25.2424 87.1319 25.6046 87.6101 26.0923C88.0883 26.5753 88.3274 27.1979 88.3274 27.9602C88.3274 28.5852 88.1475 29.1439 87.7876 29.6364C87.4325 30.1288 86.9354 30.517 86.2962 30.8011C85.657 31.0852 84.9136 31.2273 84.0661 31.2273C82.9534 31.2273 82.0324 30.9858 81.3033 30.5028C80.5741 30.0199 80.1125 29.3144 79.9183 28.3864L81.5092 27.9886C81.6607 28.5758 81.9472 29.0161 82.3686 29.3097C82.7947 29.6032 83.3511 29.75 84.0376 29.75C84.8189 29.75 85.4392 29.5843 85.8984 29.2528C86.3625 28.9167 86.5945 28.5142 86.5945 28.0455C86.5945 27.6667 86.4619 27.3494 86.1967 27.0938C85.9316 26.8333 85.5244 26.6392 84.9751 26.5114L83.157 26.0852C82.1579 25.8485 81.424 25.4815 80.9553 24.9844C80.4912 24.4825 80.2592 23.8551 80.2592 23.1023C80.2592 22.4867 80.4321 21.9422 80.7777 21.4688C81.1281 20.9953 81.6039 20.6236 82.2053 20.3537C82.8113 20.0838 83.4979 19.9489 84.2649 19.9489C85.3445 19.9489 86.192 20.1856 86.8075 20.6591C87.4278 21.1326 87.8681 21.7576 88.1286 22.5341ZM92.0721 31.1136C91.7217 31.1136 91.421 30.9882 91.1701 30.7372C90.9192 30.4863 90.7937 30.1856 90.7937 29.8352C90.7937 29.4848 90.9192 29.1842 91.1701 28.9332C91.421 28.6823 91.7217 28.5568 92.0721 28.5568C92.4225 28.5568 92.7231 28.6823 92.9741 28.9332C93.225 29.1842 93.3505 29.4848 93.3505 29.8352C93.3505 30.0672 93.2913 30.2803 93.1729 30.4744C93.0593 30.6686 92.9054 30.8248 92.7113 30.9432C92.5219 31.0568 92.3088 31.1136 92.0721 31.1136ZM97.5799 31.1136C97.2295 31.1136 96.9289 30.9882 96.6779 30.7372C96.427 30.4863 96.3015 30.1856 96.3015 29.8352C96.3015 29.4848 96.427 29.1842 96.6779 28.9332C96.9289 28.6823 97.2295 28.5568 97.5799 28.5568C97.9303 28.5568 98.2309 28.6823 98.4819 28.9332C98.7328 29.1842 98.8583 29.4848 98.8583 29.8352C98.8583 30.0672 98.7991 30.2803 98.6808 30.4744C98.5671 30.6686 98.4132 30.8248 98.2191 30.9432C98.0297 31.0568 97.8166 31.1136 97.5799 31.1136ZM103.088 31.1136C102.737 31.1136 102.437 30.9882 102.186 30.7372C101.935 30.4863 101.809 30.1856 101.809 29.8352C101.809 29.4848 101.935 29.1842 102.186 28.9332C102.437 28.6823 102.737 28.5568 103.088 28.5568C103.438 28.5568 103.739 28.6823 103.99 28.9332C104.241 29.1842 104.366 29.4848 104.366 29.8352C104.366 30.0672 104.307 30.2803 104.189 30.4744C104.075 30.6686 103.921 30.8248 103.727 30.9432C103.538 31.0568 103.324 31.1136 103.088 31.1136Z" fill="#0085FF"/>
</svg>
